<svg width="82" height="72" viewBox="0 0 82 72" fill="none" xmlns="http://www.w3.org/2000/svg">
<path d="M8 0C3.6026 0 0 3.6026 0 8V65C0 68.8434 3.1566 72 7 72H75C78.8434 72 82 68.8434 82 65V19C82 15.1566 78.8434 12 75 12H70V2C69.9999 0.9528 69.0472 0.0001 68 0H8ZM8 4H66V12H8C5.7494 12 4 10.2506 4 8C4 5.7494 5.7494 4 8 4ZM4 14.9062C5.1789 15.5928 6.5456 16 8 16C30.5241 15.98 55.6406 16 75 16C76.6966 16 78 17.3034 78 19V31H49C46.2646 31 44 33.2646 44 36V48C44 50.7354 46.2646 53 49 53H78V65C78 66.6966 76.6966 68 75 68H7C5.3034 68 4 66.6966 4 65V14.9062ZM49 35H78V49H49C48.4114 49 48 48.5886 48 48V36C48 35.4114 48.4114 34.9988 49 35ZM59 38C56.7909 38 55 39.7909 55 42C55 44.2092 56.7909 46 59 46C61.2091 46 63 44.2092 63 42C63 39.7909 61.2091 38 59 38Z" fill="black"/>
</svg>
